<?xml version="1.0" encoding="UTF-8"?>
<svg version="1.1" xmlns="http://www.w3.org/2000/svg" width="512" height="512">
<path d="M0 0 C14.46846693 12.5054086 26.12712452 30.25384162 27.78564453 49.74780273 C29.5097888 91.39969485 5.59808701 130.15168202 -20.4375 161.125 C-21.13431885 161.96877197 -21.8311377 162.81254395 -22.54907227 163.68188477 C-29.5415685 172.08054684 -36.61458532 177.33746285 -47.4375 179.125 C-50.64568056 179.3795575 -53.83246575 179.39610331 -57.04956055 179.38037109 C-58.42231392 179.38580177 -58.42231392 179.38580177 -59.82279968 179.39134216 C-61.79517819 179.39819443 -63.76757549 179.40074949 -65.73996544 179.39939499 C-68.87411967 179.39842201 -72.00793813 179.41146412 -75.14204407 179.42837524 C-84.04803881 179.47440585 -92.95399764 179.49922883 -101.86010742 179.50585938 C-107.32362645 179.51090565 -112.78679338 179.53531158 -118.25019264 179.57118607 C-120.31795947 179.58091101 -122.38577517 179.58335645 -124.45355797 179.57801437 C-145.20361397 179.52692727 -161.58444132 182.98745304 -177.19140625 197.8203125 C-189.20548454 210.14780153 -195.31075197 225.39831764 -195.8125 242.625 C-195.25737364 260.28228857 -188.7897179 276.1456905 -176.22265625 288.5703125 C-164.95547043 298.90515054 -151.01502796 305.43436716 -135.56298828 305.41210938 C-134.82020126 305.41894241 -134.07741425 305.42577545 -133.31211853 305.43281555 C-131.71189475 305.44631489 -130.11162894 305.45542475 -128.51135635 305.46052551 C-125.96005075 305.4689069 -123.40908763 305.48950188 -120.85787964 305.51306152 C-115.4261384 305.56107188 -109.99436165 305.59405574 -104.5625 305.625 C-98.29361269 305.66096776 -92.02489073 305.70346991 -85.75616074 305.76094055 C-83.27622777 305.78060828 -80.79643033 305.78924945 -78.31643677 305.79724121 C-64.72439256 305.88779942 -50.13501647 306.00945231 -37.25 310.75 C-36.51499268 311.01014893 -35.77998535 311.27029785 -35.02270508 311.53833008 C-11.8189924 320.0699528 7.53501924 336.60008283 18.48974609 359.02294922 C29.05599259 382.34258968 31.541726 409.77025331 22.51074219 434.01147461 C18.05264735 445.29835206 12.41047114 454.87900971 4.5625 464.125 C4.07007813 464.75148438 3.57765625 465.37796875 3.0703125 466.0234375 C-10.8817591 483.44382069 -33.73767868 493.32572007 -55.4375 496.125 C-60.77459332 496.41129607 -66.10358518 496.41959101 -71.44628906 496.41552734 C-73.03259595 496.42152345 -74.61889995 496.42833145 -76.2052002 496.43588257 C-80.4817578 496.45342803 -84.7582352 496.45823274 -89.03482533 496.45951414 C-91.71058027 496.46094148 -94.38631518 496.46522178 -97.06206512 496.47050858 C-106.4069497 496.48896256 -115.75177749 496.49718398 -125.09667969 496.49560547 C-133.79409122 496.49440151 -142.49125564 496.5155655 -151.18860459 496.5470928 C-158.67338671 496.57325381 -166.158088 496.58397302 -173.64291549 496.58269465 C-178.10598841 496.58218548 -182.56884081 496.58784547 -187.03186798 496.60905075 C-191.22469714 496.62843329 -195.41709509 496.62855775 -199.60993958 496.61401749 C-201.14539471 496.61192913 -202.68087688 496.61663195 -204.21628571 496.6287384 C-218.6096355 496.73485663 -218.6096355 496.73485663 -224.4375 492.125 C-227.85147924 488.29264096 -228.7506828 484.04404189 -228.5 479 C-227.71401667 473.93390944 -226.26192613 471.53372763 -222.4375 468.125 C-215.5717323 464.01846136 -208.07669385 464.70569767 -200.3293457 464.74023438 C-198.79114887 464.73612528 -197.25295515 464.73066241 -195.71476746 464.72395325 C-192.41086735 464.71225518 -189.10713417 464.70973438 -185.80321693 464.71430969 C-180.56950549 464.72114081 -175.33601201 464.70521304 -170.1023407 464.68591309 C-158.98490552 464.64809871 -147.86748961 464.63527309 -136.75 464.625 C-124.7629688 464.61391087 -112.77603877 464.59841207 -100.78907651 464.55428743 C-95.59647067 464.53602238 -90.40411565 464.5320063 -85.21148551 464.53922272 C-81.9669936 464.54075475 -78.72262481 464.52989658 -75.47816658 464.51584435 C-73.98514015 464.51187343 -72.49208969 464.5129118 -70.99907303 464.51961708 C-52.76382719 464.59515569 -36.90036538 460.13769719 -23.49975586 447.38476562 C-11.15070784 435.05040137 -4.22924857 419.1359931 -4.0625 401.6875 C-4.27159312 383.85738042 -10.81806749 367.88599666 -23.4375 355.125 C-39.80057266 340.78236771 -58.81098225 337.66332073 -79.76507187 337.74487495 C-82.38432133 337.75418944 -85.00288513 337.74353597 -87.62210083 337.72825623 C-95.05616525 337.68870877 -102.49016398 337.68694208 -109.92431641 337.68920898 C-114.50763747 337.6892607 -119.09058373 337.66980237 -123.67380142 337.63987541 C-126.21826027 337.6292666 -128.76193489 337.6410453 -131.30636597 337.65370178 C-158.04090597 337.59506074 -180.68280114 328.42189728 -200.4375 310.125 C-218.95361554 290.43659792 -227.87452976 265.75813102 -227.58203125 239.0078125 C-226.7194627 215.83502508 -218.00332095 193.52809187 -201.4375 177.125 C-200.591875 176.238125 -199.74625 175.35125 -198.875 174.4375 C-198.070625 173.674375 -197.26625 172.91125 -196.4375 172.125 C-195.92574219 171.61839844 -195.41398437 171.11179688 -194.88671875 170.58984375 C-177.72075745 154.45310497 -155.10628958 147.73261732 -131.9453125 147.61328125 C-130.63335907 147.59533005 -129.32140564 147.57737885 -127.96969604 147.55888367 C-124.5340051 147.51202943 -121.09837666 147.48180778 -117.66247559 147.45544434 C-114.13553503 147.42530655 -110.60880916 147.37889357 -107.08203125 147.33398438 C-100.20064457 147.24868969 -93.31918577 147.18102256 -86.4375 147.125 C-87.08904053 146.16037842 -87.74058105 145.19575684 -88.41186523 144.2019043 C-93.32444109 136.90076304 -98.15256646 129.59439317 -102.5 121.9375 C-102.99894775 121.05876221 -103.49789551 120.18002441 -104.01196289 119.2746582 C-117.46398542 95.17715023 -128.72778895 68.24872448 -121.9375 40.25 C-115.35584314 19.32725925 -102.71486991 2.41035215 -83.2109375 -8.046875 C-56.27356347 -21.64989538 -23.86708322 -18.22308981 0 0 Z M-75.4375 24.125 C-76.324375 24.7025 -77.21125 25.28 -78.125 25.875 C-86.9667229 34.47775742 -92.46930229 45.57268192 -92.8125 57.875 C-92.85753239 84.24467812 -73.99486715 110.99053089 -59.0625 131.5 C-58.47952148 132.30324707 -57.89654297 133.10649414 -57.29589844 133.93408203 C-54.33342629 137.91506406 -51.54877765 141.24556584 -47.4375 144.125 C-27.82836167 123.98326779 -9.82061074 94.60896727 -3.4375 67.125 C-3.26605469 66.41859375 -3.09460938 65.7121875 -2.91796875 64.984375 C-0.95348439 54.3632068 -4.95300139 43.85756223 -10.375 34.9375 C-11.055625 34.009375 -11.73625 33.08125 -12.4375 32.125 C-13.5203125 30.64 -13.5203125 30.64 -14.625 29.125 C-20.56098 22.19061358 -30.46194396 16.78714001 -39.4375 15.125 C-53.47709892 14.31919521 -63.55642613 16.18299184 -75.4375 24.125 Z " fill="#000000" transform="translate(484.4375,15.875)"/>
<path d="M0 0 C1.46011529 -0.00271705 2.9202292 -0.00628195 4.38034058 -0.01062012 C8.31009726 -0.01966162 12.23974777 -0.01623424 16.16950607 -0.00986195 C20.30384331 -0.00475891 24.43817213 -0.00950526 28.57250977 -0.01263428 C35.51222344 -0.01626147 42.45189439 -0.01150768 49.39160156 -0.00195312 C57.3873401 0.00892901 65.38297659 0.00540255 73.37871265 -0.00560594 C80.27336144 -0.01471447 87.1679797 -0.01594672 94.06263256 -0.0107286 C98.16751462 -0.00762843 102.27234889 -0.00714531 106.37722778 -0.01380157 C110.23840174 -0.01962658 114.09944556 -0.01548503 117.96060562 -0.00401306 C119.36817332 -0.0013938 120.77575219 -0.00208407 122.18331528 -0.00653839 C139.73603494 -0.05691623 153.76954223 2.34113802 166.8671875 14.82910156 C174.66401861 23.47371645 179.1606724 33.93553745 179.20576477 45.54981995 C179.21649773 47.45254417 179.21649773 47.45254417 179.22744751 49.39370728 C179.23028746 50.79217505 179.23299922 52.19064308 179.2355957 53.58911133 C179.24186515 55.06789813 179.24851238 56.54668337 179.25550842 58.02546692 C179.27649908 62.87536533 179.28690813 67.72526387 179.296875 72.57519531 C179.30092483 74.24932305 179.30504182 75.92345063 179.30922508 77.59757805 C179.32826808 85.46673102 179.34249934 93.33587467 179.35083705 101.20504624 C179.36059766 110.26585773 179.38689007 119.32642418 179.42733794 128.38714939 C179.45758179 135.40479148 179.47231385 142.42236366 179.47561806 149.44006962 C179.47795967 153.62451535 179.48680304 157.80869904 179.51207924 161.99307442 C179.53550948 165.93549107 179.53953386 169.87747592 179.52931786 173.81994438 C179.52882595 175.25816161 179.53504333 176.69640119 179.5488739 178.134552 C179.66887789 191.36506543 177.10177991 201.66532437 169.05859375 212.25878906 C168.37796875 213.18691406 167.69734375 214.11503906 166.99609375 215.07128906 C165.05859375 217.25878906 165.05859375 217.25878906 162.47290039 219.01513672 C159.81753603 221.05015247 159.81753603 221.05015247 159.46264648 224.09619141 C159.47239502 225.16820801 159.48214355 226.24022461 159.4921875 227.34472656 C159.47575195 229.11203125 159.47575195 229.11203125 159.45898438 230.91503906 C159.47123047 232.14222656 159.48347656 233.36941406 159.49609375 234.63378906 C159.59741388 249.37976486 159.59741388 249.37976486 155.05859375 254.25878906 C150.72537736 258.17931818 147.1874717 258.8927122 141.52734375 258.64550781 C136.56650363 257.86841419 133.23782263 255.83109424 130.18359375 251.75878906 C126.70399032 244.026337 128.05859375 238.84321872 128.05859375 229.25878906 C82.84859375 229.25878906 37.63859375 229.25878906 -8.94140625 229.25878906 C-8.94140625 235.52878906 -8.94140625 241.79878906 -8.94140625 248.25878906 C-14.03231534 255.8951527 -14.03231534 255.8951527 -18.94140625 258.25878906 C-24.04783537 259.07382172 -27.77507794 258.87376217 -32.37890625 256.44628906 C-33.22453125 255.72441406 -34.07015625 255.00253906 -34.94140625 254.25878906 C-35.51890625 253.84628906 -36.09640625 253.43378906 -36.69140625 253.00878906 C-41.44846952 246.34890048 -40.19920505 236.38951932 -39.98046875 228.65917969 C-39.98964616 222.97738407 -39.98964616 222.97738407 -42.66601562 218.15283203 C-44.69727718 216.42234267 -46.79967594 214.84837541 -48.94140625 213.25878906 C-50.89453125 210.77441406 -50.89453125 210.77441406 -52.19140625 208.50878906 C-52.6296875 207.77144531 -53.06796875 207.03410156 -53.51953125 206.27441406 C-58.20185781 196.34376542 -59.52949045 187.95782738 -59.47485352 176.98779297 C-59.4819262 175.48018048 -59.49067684 173.97257508 -59.5009613 172.46498108 C-59.52331591 168.40072158 -59.52054825 164.33685406 -59.51163983 160.27255678 C-59.50650082 156.86581877 -59.51384611 153.45915254 -59.52111191 150.05242193 C-59.53806722 142.00819041 -59.53458993 133.96414878 -59.51782227 125.91992188 C-59.50090985 117.65197376 -59.51673312 109.38455399 -59.54904515 101.11666358 C-59.57583309 93.98929424 -59.58299219 86.86208843 -59.57453007 79.73467386 C-59.569627 75.49047322 -59.57167282 71.24659008 -59.59231758 67.00242996 C-59.61081996 63.00808436 -59.60454109 59.01449185 -59.58011818 55.02018547 C-59.57515575 53.56466347 -59.57847948 52.10908261 -59.59126663 50.65360832 C-59.71511844 35.3296597 -55.43157502 24.11879473 -44.87890625 13.10644531 C-32.13969028 0.89044714 -16.86482984 -0.05336981 0 0 Z M-24.81640625 37.00878906 C-37.62992287 56.60593213 -28.94140625 107.85746247 -28.94140625 113.25878906 C29.46859375 113.25878906 87.87859375 113.25878906 148.05859375 113.25878906 C152.43429549 73.06562942 152.43429549 73.06562942 144.05859375 36.25878906 C138.65307836 31.97942271 134.76349072 31.136987 128.01275635 31.11834717 C126.77352417 31.11263702 125.53429199 31.10692688 124.25750732 31.1010437 C122.88684092 31.09979843 121.5161744 31.09867331 120.14550781 31.09765625 C118.69978713 31.0930261 117.25406766 31.08800117 115.80834961 31.08261108 C111.88255515 31.06950324 107.95677777 31.06304517 104.03096485 31.05860043 C101.57652622 31.05566682 99.12209223 31.05156145 96.66765594 31.04709625 C88.98324679 31.03342497 81.29884828 31.02375676 73.6144278 31.01989436 C64.75340131 31.01541573 55.89252924 30.99787538 47.03154969 30.96889377 C40.17619584 30.9472528 33.32088536 30.93718878 26.46549773 30.93585324 C22.37399464 30.93480685 18.28263677 30.92893464 14.19116974 30.91103363 C10.33993464 30.89451131 6.4889533 30.89241748 2.63769531 30.90117264 C1.22844512 30.90194082 -0.18081896 30.89762926 -1.59003448 30.88771439 C-14.26752054 30.69669838 -14.26752054 30.69669838 -24.81640625 37.00878906 Z M-28.94140625 144.25878906 C-31.8459709 169.79891377 -31.8459709 169.79891377 -23.50390625 194.13378906 C-19.14513253 197.7483819 -16.3371684 198.50927132 -10.65432739 198.5262146 C-9.36171997 198.53474457 -8.06911255 198.54327454 -6.73733521 198.55206299 C-5.30682361 198.55136398 -3.87631211 198.55044093 -2.44580078 198.54931641 C-0.93772041 198.55530145 0.5703569 198.56210694 2.07843018 198.56967163 C6.17352328 198.58734131 10.2685328 198.59202741 14.36366034 198.5933032 C16.92261595 198.5947248 19.48155031 198.59899456 22.04050064 198.60429764 C30.96923421 198.62280104 39.89790805 198.63096785 48.82666016 198.62939453 C57.14734193 198.62819301 65.46776436 198.64929658 73.7883805 198.68088186 C80.93415575 198.70704002 88.07984627 198.71776202 95.22566903 198.71648371 C99.49263953 198.71597394 103.75937955 198.72166514 108.02630234 198.74283981 C112.04011271 198.7622146 116.05347256 198.76235215 120.06729889 198.74780655 C121.53866611 198.74571639 123.01006147 198.75043178 124.48138046 198.76252747 C126.4933791 198.77799401 128.50553153 198.76626657 130.51754761 198.75326538 C131.64247053 198.75435492 132.76739346 198.75544445 133.92640495 198.756567 C138.96299824 197.95613472 142.05925655 195.39317183 145.37109375 191.63378906 C154.53244527 178.74003508 148.05859375 160.07584484 148.05859375 144.25878906 C89.64859375 144.25878906 31.23859375 144.25878906 -28.94140625 144.25878906 Z " fill="#000000" transform="translate(58.94140625,253.7412109375)"/>
<path d="M0 0 C3.53148305 3.1110684 5.29436337 5.75465831 5.90625 10.48828125 C6.10810348 15.49256536 5.48867371 19.06636311 2.625 23.3125 C-2.05108573 27.6378793 -5.81147832 28.69320933 -12.02734375 28.58203125 C-16.6603428 28.05012287 -19.82207972 26.25476916 -22.73046875 22.6171875 C-25.44921444 18.03336371 -25.91187081 13.95004199 -25.11328125 8.71484375 C-23.5119959 3.50431207 -20.29431673 0.33613559 -15.5625 -2.1875 C-9.82818837 -3.08699986 -5.21210159 -2.6060508 0 0 Z " fill="#000000" transform="translate(77.375,412.6875)"/>
<path d="M0 0 C3.93792318 2.56821077 6.74612583 5.61725165 8.875 9.875 C9.54339948 15.25506798 9.2399226 19.78962685 6.1953125 24.3671875 C3.24654782 27.73471166 0.07914835 29.49658869 -4.33203125 30.25390625 C-8.96608375 30.49863475 -12.71284823 29.83913128 -16.6171875 27.26953125 C-20.49777236 23.68049292 -21.94220637 19.38957581 -22.5625 14.25 C-21.87742629 8.96514564 -20.12399694 5.534266 -16.125 2.0625 C-10.93589161 -1.72122487 -6.05728943 -2.18062419 0 0 Z " fill="#000000" transform="translate(443.125,61.125)"/>
<path d="M0 0 C3.57534337 3.06458003 5.34944044 5.02511167 5.94140625 9.8046875 C6.13332092 14.37349472 5.97350902 17.51276939 4 21.6875 C-0.11907949 26.13176997 -3.24433208 28.47384379 -9.375 28.75 C-14.86631512 28.52704435 -17.87534078 26.4395278 -21.94921875 22.87109375 C-24.61998018 19.83447459 -25.11988741 16.20113395 -25.375 12.25 C-24.66339851 7.55343016 -23.32526857 4.22527564 -20 0.8125 C-13.03316118 -3.33442787 -7.33134708 -3.80143923 0 0 Z " fill="#000000" transform="translate(179.375,412.75)"/>
</svg>