<?xml version="1.0" encoding="UTF-8"?>
<svg version="1.1" xmlns="http://www.w3.org/2000/svg" width="512" height="512">
<path d="M0 0 C2.42889935 -0.0051445 4.85779496 -0.01242976 7.28668213 -0.02168274 C13.17054039 -0.03821812 19.05409392 -0.03161686 24.93792225 -0.01359452 C29.71878004 0.00048013 34.49954759 0.00431392 39.28042412 0.00096321 C39.96302208 0.00048577 40.64562005 0.00000833 41.3489028 -0.00048358 C42.73583896 -0.00150997 44.12277509 -0.00256534 45.5097112 -0.00364935 C57.74140407 -0.01219472 69.9729361 0.00439452 82.20458984 0.03417969 C94.06859066 0.06306904 105.93236033 0.07007094 117.79638672 0.0546875 C130.73597295 0.0379323 143.67544975 0.03387969 156.61503881 0.05139786 C157.99387736 0.05324219 159.37271592 0.05507691 160.75155449 0.05690193 C161.42989204 0.05781402 162.10822958 0.05872611 162.80712282 0.05966584 C167.5863852 0.06527111 172.3655941 0.0619647 177.14485359 0.05535698 C183.56935406 0.04682643 189.99359595 0.05975781 196.41804504 0.08720589 C198.77876226 0.09410834 201.13951057 0.09416791 203.50022697 0.08699036 C206.7149289 0.07834012 209.92858919 0.0941768 213.14320374 0.11643982 C214.08374904 0.10819905 215.02429435 0.09995829 215.99334103 0.0914678 C222.25400812 0.17186093 222.25400812 0.17186093 225.49273586 2.42608738 C227.67505084 5.8122664 227.47073893 9.20201524 227.43139648 13.09985352 C227.4419104 14.37856323 227.4419104 14.37856323 227.45263672 15.68310547 C227.47023404 18.49943671 227.45858796 21.31476215 227.44506836 24.13110352 C227.44776278 26.08878777 227.45164478 28.04647072 227.45666504 30.00415039 C227.46256244 34.10649358 227.45398929 38.20848833 227.43530273 42.31079102 C227.41251311 47.5703098 227.42563489 52.82901215 227.44959259 58.08850098 C227.46404399 62.13084062 227.45944759 66.17298657 227.44908142 70.21533203 C227.44641232 72.15462338 227.44969033 74.09393229 227.45899963 76.03320312 C227.46915438 78.74339402 227.45367964 81.45226126 227.43139648 84.16235352 C227.43949341 84.96455322 227.44759033 85.76675293 227.45593262 86.59326172 C227.40596443 89.87224573 227.27627904 92.11502359 225.36475849 94.8366909 C222.04137011 97.26985112 219.15510702 97.18613553 215.19084167 97.1366272 C214.01706049 97.14576238 214.01706049 97.14576238 212.81956655 97.15508211 C210.19467671 97.17071134 207.57069555 97.1578823 204.94580078 97.14526367 C203.06496099 97.15072316 201.18412565 97.1579638 199.30329895 97.16685486 C195.2512017 97.18220813 191.19935772 97.18498722 187.14723778 97.17808914 C180.73895216 97.16731631 174.33093181 97.1846693 167.92268372 97.2059021 C157.78446917 97.23618433 147.64633298 97.24785869 137.50807697 97.25147855 C119.36003882 97.25812027 101.21205527 97.28714499 83.06408387 97.33657491 C76.69514744 97.35306809 70.32632494 97.3584904 63.95736921 97.35498452 C59.99205286 97.35454707 56.0267794 97.36211842 52.06147575 97.37166023 C50.22448653 97.37434004 48.38748858 97.37359636 46.55050278 97.36915016 C44.03947454 97.36349358 41.52875618 97.37007298 39.01774597 97.37954712 C38.29380227 97.37488391 37.56985856 97.37022069 36.82397717 97.36541617 C31.55957979 97.40409882 25.97469824 97.63891963 22.03881836 101.44360352 C20.09506591 105.22312216 19.78915968 109.05767075 19.78010559 113.25845337 C19.77584061 114.15815857 19.77157562 115.05786377 19.7671814 115.98483276 C19.76763458 116.95945465 19.76808777 117.93407654 19.76855469 118.93823242 C19.76519608 119.97467896 19.76183746 121.01112549 19.75837708 122.07897949 C19.74887953 125.50522054 19.74692431 128.93141262 19.74584961 132.35766602 C19.74263531 134.74555481 19.73927111 137.13344341 19.73576355 139.52133179 C19.72977464 144.52976945 19.72792332 149.53818987 19.72851562 154.54663086 C19.72861703 160.94525483 19.71498613 167.34376729 19.69774342 173.74236488 C19.68658848 178.67707826 19.68459752 183.61176502 19.68512535 188.54648972 C19.68394968 190.90424355 19.67955123 193.26199817 19.67179298 195.61973953 C19.66192617 198.92910657 19.66489789 202.23823604 19.67089844 205.54760742 C19.66527893 206.51008392 19.65965942 207.47256042 19.65386963 208.46420288 C19.70034102 218.61962538 20.41590605 229.83674602 27.72949219 237.54467773 C33.38750262 242.70662044 39.15065198 246.26518179 46.03881836 249.56860352 C47.08432861 250.07875 48.12983887 250.58889648 49.20703125 251.11450195 C89.1289314 270.27317509 134.31213224 283.1972624 178.84350586 282.62329102 C181.29141852 282.60579368 183.73933543 282.58888361 186.18725586 282.57250977 C190.00573661 282.54143714 193.82400175 282.50568 197.64233398 282.4597168 C201.35525244 282.4174598 205.06791317 282.39397756 208.78100586 282.37329102 C209.92374969 282.3546701 211.06649353 282.33604919 212.24386597 282.31686401 C213.84175461 282.31168259 213.84175461 282.31168259 215.47192383 282.30639648 C216.40471161 282.29671844 217.33749939 282.28704041 218.29855347 282.27706909 C221.75020277 282.7443268 224.43683412 284.15411928 226.91381836 286.63110352 C227.0196586 288.86215018 227.05351494 291.09661116 227.06098938 293.33015442 C227.06466607 294.03872469 227.06834276 294.74729496 227.07213086 295.47733706 C227.08321004 297.8695014 227.08701866 300.26162238 227.09082031 302.65380859 C227.09708177 304.36173136 227.10372828 306.06965275 227.11073303 307.77757263 C227.12817236 312.43052141 227.13870273 317.08345988 227.14693856 321.73643327 C227.15208241 324.64092264 227.15815841 327.54540877 227.16444969 330.44989586 C227.18350977 339.53001322 227.19773927 348.61012241 227.20606166 357.69025594 C227.21583869 368.18538513 227.24216691 378.68030366 227.28256255 389.17535859 C227.31268415 397.27813615 227.32752676 405.38085319 227.33084267 413.48368567 C227.33319768 418.327438 227.34221632 423.17096551 227.36730385 428.01465797 C227.39052057 432.57092036 227.39484376 437.12680889 227.38454247 441.68311501 C227.38404543 443.35689535 227.39041508 445.0306937 227.40409851 446.70441818 C227.42171846 448.98709823 227.41476161 451.26842214 227.40156555 453.55110168 C227.40395391 454.82925153 227.40634226 456.10740137 227.40880299 457.42428303 C226.91381836 460.63110352 226.91381836 460.63110352 225.25507259 463.04354 C222.28457914 465.05777962 220.54269669 465.12458393 216.96600342 465.11212158 C215.14029816 465.12036957 215.14029816 465.12036957 213.27770996 465.12878418 C211.93212495 465.11462863 210.58654394 465.10008941 209.2409668 465.08520508 C207.82167594 465.08407658 206.40238276 465.0847105 204.98309326 465.0869751 C201.13200869 465.08812312 197.2814221 465.06460007 193.4304533 465.03667927 C189.40526031 465.01168003 185.380056 465.00932479 181.35479736 465.00457764 C173.73330426 464.99214348 166.11204057 464.95931603 158.49064851 464.91917968 C149.81360695 464.87447557 141.13655445 464.85247837 132.4594264 464.83239794 C114.61076031 464.7905837 96.76230778 464.72022319 78.91381836 464.63110352 C78.94000244 465.45723145 78.96618652 466.28335937 78.99316406 467.13452148 C79.07919611 470.24692138 79.14145482 473.35870862 79.18847656 476.47192383 C79.22551459 478.46289705 79.28910064 480.45332005 79.35327148 482.44360352 C79.46746312 491.48758091 78.46499549 498.69850042 72.15722656 505.53491211 C66.36002666 511.02865322 60.03033198 513.09750457 52.14428711 513.09985352 C51.42324295 513.10746704 50.70219879 513.11508057 49.95930481 513.1229248 C48.44246863 513.13366528 46.92555887 513.1366037 45.40869141 513.13208008 C43.11679425 513.13111007 40.82827838 513.17274348 38.53686523 513.21704102 C29.17557857 513.29376714 21.18579338 512.51404548 14.01806641 505.87524414 C6.26974567 497.73797365 6.5201953 489.41589186 6.72631836 478.69360352 C6.74138844 477.32838386 6.75507275 475.96314816 6.76733398 474.59790039 C6.80255672 471.27522256 6.85181795 467.95337171 6.91381836 464.63110352 C6.06787109 464.65205078 5.22192383 464.67299805 4.3503418 464.69458008 C1.15214214 464.76355572 -2.04567327 464.81328652 -5.24438477 464.85083008 C-6.61756008 464.8707033 -7.9906536 464.8978121 -9.36352539 464.93286133 C-22.94033098 465.27029655 -33.20353144 462.83252105 -44.08618164 454.63110352 C-45.38555664 453.76485352 -45.38555664 453.76485352 -46.71118164 452.88110352 C-55.58627265 444.47312256 -61.14487572 432.82072403 -61.70142078 420.61225414 C-61.72216436 418.03969314 -61.71600444 415.46681909 -61.68745422 412.89433289 C-61.68963988 411.45180264 -61.69402745 410.00927437 -61.70040005 408.56675655 C-61.71148632 404.63952184 -61.69171211 400.71297961 -61.66650975 396.785833 C-61.64478644 392.53721644 -61.65223351 388.28863455 -61.65602112 384.03997803 C-61.65863465 376.69110148 -61.64303365 369.342448 -61.61483192 361.99362755 C-61.57408451 351.36868883 -61.56116323 340.74385727 -61.55489197 330.1188489 C-61.54396638 312.87783692 -61.51073939 295.63694366 -61.46337891 278.39599609 C-61.41743832 261.65446565 -61.38206845 244.91296753 -61.36083984 228.17138672 C-61.35952623 227.13831466 -61.35821261 226.1052426 -61.35685918 225.04086532 C-61.35033369 219.85791105 -61.34401522 214.67495655 -61.33779967 209.49200189 C-61.28602073 166.5382827 -61.1966205 123.58470859 -61.08618164 80.63110352 C-71.64618164 80.63110352 -82.20618164 80.63110352 -93.08618164 80.63110352 C-93.08618164 83.27110352 -93.08618164 85.91110352 -93.08618164 88.63110352 C-92.26633789 88.58469727 -91.44649414 88.53829102 -90.60180664 88.49047852 C-89.52415039 88.45438477 -88.44649414 88.41829102 -87.33618164 88.38110352 C-86.26883789 88.33469727 -85.20149414 88.28829102 -84.10180664 88.24047852 C-80.32172173 88.73012682 -79.42779935 89.68319207 -77.08618164 92.63110352 C-76.57824707 95.21118164 -76.57824707 95.21118164 -76.56860352 98.16235352 C-76.55599487 99.27030273 -76.54338623 100.37825195 -76.53039551 101.51977539 C-76.53849243 102.71151367 -76.54658936 103.90325195 -76.55493164 105.13110352 C-76.55110474 106.35893555 -76.54727783 107.58676758 -76.54333496 108.85180664 C-76.54061322 111.44751811 -76.54799253 114.04325688 -76.56469727 116.63891602 C-76.58610089 120.61609951 -76.56490201 124.59147633 -76.53930664 128.56860352 C-76.54194987 131.08944084 -76.54707473 133.61027705 -76.55493164 136.13110352 C-76.54683472 137.3228418 -76.53873779 138.51458008 -76.53039551 139.74243164 C-76.54300415 140.85038086 -76.55561279 141.95833008 -76.56860352 143.09985352 C-76.57337708 144.56068359 -76.57337708 144.56068359 -76.57824707 146.05102539 C-77.2376467 149.40047757 -78.39179992 150.58548166 -81.08618164 152.63110352 C-83.05883789 153.13903809 -83.05883789 153.13903809 -85.14868164 153.14868164 C-85.93629883 153.16129028 -86.72391602 153.17389893 -87.53540039 153.18688965 C-88.3771582 153.17879272 -89.21891602 153.1706958 -90.08618164 153.16235352 C-90.95887695 153.16618042 -91.83157227 153.17000732 -92.73071289 153.1739502 C-94.57317256 153.17666842 -96.41567088 153.16931346 -98.25805664 153.15258789 C-101.07664098 153.13117599 -103.89267649 153.15239153 -106.71118164 153.17797852 C-108.50285393 153.17533522 -110.29452463 153.17021021 -112.08618164 153.16235352 C-112.92793945 153.17045044 -113.76969727 153.17854736 -114.63696289 153.18688965 C-115.42458008 153.17428101 -116.21219727 153.16167236 -117.02368164 153.14868164 C-118.0581543 153.14390808 -118.0581543 153.14390808 -119.11352539 153.13903809 C-122.05755071 152.380988 -123.25190339 151.01708794 -125.08618164 148.63110352 C-125.59411621 146.05102539 -125.59411621 146.05102539 -125.60375977 143.09985352 C-125.61636841 141.9919043 -125.62897705 140.88395508 -125.64196777 139.74243164 C-125.63387085 138.55069336 -125.62577393 137.35895508 -125.61743164 136.13110352 C-125.62125854 134.90327148 -125.62508545 133.67543945 -125.62902832 132.41040039 C-125.63175006 129.81468893 -125.62437075 127.21895016 -125.60766602 124.62329102 C-125.58626239 120.64610752 -125.60746127 116.6707307 -125.63305664 112.69360352 C-125.63041341 110.17276619 -125.62528855 107.65192999 -125.61743164 105.13110352 C-125.62552856 103.93936523 -125.63362549 102.74762695 -125.64196777 101.51977539 C-125.62935913 100.41182617 -125.61675049 99.30387695 -125.60375977 98.16235352 C-125.60057739 97.1884668 -125.59739502 96.21458008 -125.59411621 95.21118164 C-124.93983564 91.88773195 -123.72933356 90.68899998 -121.08618164 88.63110352 C-118.07055664 88.24047852 -118.07055664 88.24047852 -114.83618164 88.38110352 C-113.75852539 88.41719727 -112.68086914 88.45329102 -111.57055664 88.49047852 C-110.75071289 88.53688477 -109.93086914 88.58329102 -109.08618164 88.63110352 C-109.14418945 87.47352539 -109.20219727 86.31594727 -109.26196289 85.12329102 C-109.30888429 83.58426904 -109.3543819 82.04520319 -109.39868164 80.50610352 C-109.46152344 79.3652832 -109.46152344 79.3652832 -109.52563477 78.20141602 C-109.61542468 74.03516402 -109.3750141 71.43621127 -106.69165039 68.13891602 C-102.32230712 63.93334123 -98.71773649 64.49970473 -92.92211914 64.53344727 C-92.01491119 64.53486221 -91.10770325 64.53627716 -90.17300415 64.53773499 C-87.26903009 64.54334256 -84.36513249 64.55589633 -81.46118164 64.56860352 C-79.49503692 64.57361754 -77.52889099 64.57818062 -75.56274414 64.58227539 C-70.73719374 64.59331445 -65.91170067 64.61058417 -61.08618164 64.63110352 C-61.11236572 63.88127197 -61.1385498 63.13144043 -61.16552734 62.35888672 C-62.01363327 34.41862731 -62.01363327 34.41862731 -56.08618164 24.63110352 C-55.2315332 23.1828418 -55.2315332 23.1828418 -54.35961914 21.70532227 C-41.11410514 1.56450982 -21.97762431 -0.11850439 0 0 Z M140.91381836 43.63110352 C139.49340015 46.47193993 139.59929564 48.48587629 139.91381836 51.63110352 C142.14588267 54.4789097 143.46374834 55.48108018 146.91381836 56.63110352 C148.46196343 56.73257785 150.01401533 56.77944209 151.56542969 56.79223633 C152.50683304 56.80184387 153.44823639 56.81145142 154.41816711 56.8213501 C155.43380234 56.82559998 156.44943756 56.82984985 157.49584961 56.83422852 C159.06625252 56.84277863 159.06625252 56.84277863 160.66838074 56.85150146 C162.88503 56.86095118 165.10169332 56.86748533 167.31835938 56.87133789 C170.70264326 56.88103567 174.08631785 56.91205665 177.47045898 56.94360352 C179.62475226 56.9501345 181.77904987 56.9553846 183.93334961 56.95922852 C185.44769341 56.97774872 185.44769341 56.97774872 186.99263 56.99664307 C192.36805966 56.97967716 196.305682 56.742649 200.91381836 53.63110352 C202.33423657 50.7902671 202.22834108 48.77633074 201.91381836 45.63110352 C199.68175405 42.78329733 198.36388837 41.78112685 194.91381836 40.63110352 C193.36567329 40.52962918 191.81362139 40.48276494 190.26220703 40.4699707 C188.85010201 40.45555939 188.85010201 40.45555939 187.4094696 40.44085693 C186.39383438 40.43660706 185.37819916 40.43235718 184.33178711 40.42797852 C182.7613842 40.41942841 182.7613842 40.41942841 181.15925598 40.41070557 C178.94260672 40.40125585 176.7259434 40.3947217 174.50927734 40.39086914 C171.12499346 40.38117136 167.74131887 40.35015039 164.35717773 40.31860352 C162.20288446 40.31207253 160.04858685 40.30682243 157.89428711 40.30297852 C156.88472458 40.29063171 155.87516205 40.27828491 154.83500671 40.26556396 C149.45957706 40.28252987 145.52195472 40.51955803 140.91381836 43.63110352 Z M149.53881836 366.06860352 C145.70255758 372.11809166 146.69199352 379.2943954 146.67358398 386.22021484 C146.66389601 388.42592335 146.63285703 390.6306922 146.60131836 392.83618164 C146.59478544 394.25349386 146.5895361 395.6708127 146.58569336 397.08813477 C146.57634766 398.36664307 146.56700195 399.64515137 146.55737305 400.96240234 C147.07373282 406.27701759 148.44133838 410.19637943 152.35131836 414.00610352 C156.47451838 416.62081572 159.94815684 416.76047684 164.78051758 416.79223633 C165.96209442 416.80184387 167.14367126 416.81145142 168.36105347 416.8213501 C169.63401276 416.82559998 170.90697205 416.82984985 172.21850586 416.83422852 C174.18631516 416.84277863 174.18631516 416.84277863 176.19387817 416.85150146 C178.96950669 416.8619908 181.74510642 416.86784709 184.52075195 416.87133789 C188.06706721 416.87682094 191.61299821 416.90085314 195.15919304 416.92930984 C198.55395637 416.95247735 201.94866759 416.95438823 205.34350586 416.95922852 C207.2468721 416.97774872 207.2468721 416.97774872 209.18869019 416.99664307 C210.97051193 416.99214142 210.97051193 416.99214142 212.78833008 416.98754883 C213.82883514 416.99119446 214.86934021 416.99484009 215.94137573 416.99859619 C219.46812358 416.56257297 221.87611742 415.44797436 224.91381836 413.63110352 C226.33423657 410.7902671 226.22834108 408.77633074 225.91381836 405.63110352 C223.68175405 402.78329733 222.36388837 401.78112685 218.91381836 400.63110352 C217.0884925 400.54283387 215.26007147 400.51347149 213.43261719 400.51757812 C211.75121391 400.51769142 211.75121391 400.51769142 210.0358429 400.51780701 C208.82639511 400.52296829 207.61694733 400.52812958 206.37084961 400.53344727 C205.13211594 400.53486221 203.89338226 400.53627716 202.61711121 400.53773499 C199.32750299 400.54238749 196.03794376 400.55136961 192.74835205 400.56243896 C189.39010213 400.57267722 186.03184503 400.57723778 182.67358398 400.58227539 C176.08697376 400.59331207 169.50040558 400.61058062 162.91381836 400.63110352 C162.91381836 392.71110352 162.91381836 384.79110352 162.91381836 376.63110352 C164.57880371 376.64681396 166.24378906 376.66252441 167.95922852 376.67871094 C174.14277296 376.73305469 180.32629633 376.76747019 186.51000977 376.79589844 C189.18531557 376.80927902 191.86013985 376.83143737 194.53540039 376.85742188 C198.38295587 376.89385435 202.23018422 376.9108418 206.07788086 376.92407227 C207.27184479 376.93955612 208.46580872 376.95503998 209.69595337 376.97099304 C217.74304483 377.03222318 217.74304483 377.03222318 224.91381836 373.63110352 C226.33423657 370.7902671 226.22834108 368.77633074 225.91381836 365.63110352 C223.68175405 362.78329733 222.36388837 361.78112685 218.91381836 360.63110352 C217.00343265 360.52757311 215.08966128 360.48255403 213.17651367 360.4699707 C211.99808899 360.46036316 210.81966431 360.45075562 209.60552979 360.44085693 C208.33054626 360.43660706 207.05556274 360.43235718 205.74194336 360.42797852 C204.43102722 360.42227844 203.12011108 360.41657837 201.76947021 360.41070557 C198.99206149 360.40020393 196.21468163 360.39435631 193.43725586 360.39086914 C189.89213055 360.3853967 186.3473917 360.36139251 182.80238724 360.33289719 C179.40724718 360.30969637 176.01215853 360.30781582 172.61694336 360.30297852 C171.35005676 360.29063171 170.08317017 360.27828491 168.77789307 360.26556396 C161.09848439 360.28491411 155.15580946 360.30379686 149.53881836 366.06860352 Z M4.91381836 363.63110352 C1.81466543 369.40380541 2.57904439 375.98175093 2.59814453 382.35058594 C2.60130394 384.55852667 2.57782173 386.76512506 2.55249023 388.97290039 C2.55021676 390.38891434 2.54951397 391.80493186 2.55053711 393.22094727 C2.54755615 394.49832764 2.5445752 395.77570801 2.54150391 397.09179688 C2.95329721 401.0063985 3.71939712 403.36745944 5.91381836 406.63110352 C10.3255166 409.53741289 15.81852084 408.91900969 20.92163086 408.89672852 C21.88406708 408.89864197 22.8465033 408.90055542 23.83810425 408.90252686 C25.86708844 408.90388488 27.89608144 408.90021523 29.92504883 408.8918457 C33.03478401 408.88111743 36.14394457 408.89176607 39.25366211 408.90454102 C41.22631964 408.90321981 43.1989768 408.90065823 45.17163086 408.89672852 C46.5685466 408.90280121 46.5685466 408.90280121 47.99368286 408.90899658 C48.8582309 408.90269226 49.72277893 408.89638794 50.61352539 408.88989258 C51.37343781 408.88830139 52.13335022 408.88671021 52.91629028 408.8850708 C55.23070755 408.74146968 55.23070755 408.74146968 57.91381836 406.63110352 C57.76757766 402.89151986 56.63548735 401.07734648 54.02709961 398.57250977 C52.76934775 397.43597077 51.50175489 396.31026025 50.22631836 395.19360352 C48.85441111 393.95636201 47.48467305 392.71671162 46.11694336 391.47485352 C45.41762695 390.84192383 44.71831055 390.20899414 43.99780273 389.55688477 C40.72536718 386.53287215 37.60149263 383.3684517 34.47631836 380.19360352 C30.29253621 375.9611323 26.07521915 371.86272039 21.51928711 368.02563477 C19.9844259 366.69243416 18.56909674 365.22525819 17.16381836 363.75610352 C12.67030845 359.51223305 10.00310437 360.31200395 4.91381836 363.63110352 Z M22.91381836 464.63110352 C22.85194336 467.95172852 22.79006836 471.27235352 22.72631836 474.69360352 C22.69900635 475.72622314 22.67169434 476.75884277 22.64355469 477.82275391 C22.59205923 483.56311336 23.13934619 487.57375254 25.91381836 492.63110352 C30.69818849 497.26113913 36.45452489 496.8403445 42.72631836 496.88110352 C43.50813477 496.90172852 44.28995117 496.92235352 45.09545898 496.94360352 C50.46922071 496.97951838 54.146336 496.14642476 58.91381836 493.63110352 C62.65466023 489.76556692 63.04326424 485.86022776 63.01147461 480.64672852 C63.00897705 479.80400391 63.00647949 478.9612793 63.00390625 478.09301758 C62.99480225 477.03308594 62.98569824 475.9731543 62.97631836 474.88110352 C62.95569336 471.49860352 62.93506836 468.11610352 62.91381836 464.63110352 C49.71381836 464.63110352 36.51381836 464.63110352 22.91381836 464.63110352 Z " fill="#000000" transform="translate(285.086181640625,-0.631103515625)"/>
<path d="M0 0 C10.53240741 4.84490741 10.53240741 4.84490741 14.125 8.4375 C16.79198806 8.56067683 19.43706265 8.62362944 22.10546875 8.6484375 C23.76107731 8.67652269 25.41667613 8.70518725 27.07226562 8.734375 C29.6879024 8.77553141 32.30336049 8.81240755 34.91918945 8.83886719 C37.44000187 8.86659206 39.9599807 8.91248194 42.48046875 8.9609375 C43.25569382 8.96419037 44.03091888 8.96744324 44.82963562 8.97079468 C51.09443698 9.11159981 55.19512036 10.63920307 59.875 15 C65.72918353 22.67733236 64.85959276 35.04705194 65.6328125 44.3125 C65.76419774 45.84694764 65.89586645 47.38137102 66.02780151 48.91577148 C66.30215161 52.1227356 66.57221575 55.33002517 66.83935547 58.53759766 C67.17768222 62.594386 67.52793849 66.65003893 67.88171577 70.70550537 C68.15654438 73.87460638 68.42412485 77.04429083 68.689785 80.21417236 C68.81582054 81.70668263 68.94410977 83.19900477 69.07495499 84.69110107 C69.50345087 89.60309757 69.85907954 94.51395967 70.125 99.4375 C70.19045139 100.61176544 70.19045139 100.61176544 70.25722504 101.80975342 C70.37574292 104.22608262 70.4517813 106.64024291 70.51513672 109.05859375 C70.55235903 109.79304214 70.58958134 110.52749054 70.62793159 111.28419495 C70.70444023 116.89354754 68.99918655 120.38436532 65.125 124.4375 C60.76184558 127.34565304 57.38184302 127.7993165 52.1953125 127.73046875 C50.90625 127.72080078 49.6171875 127.71113281 48.2890625 127.70117188 C46.94270214 127.67611188 45.59634797 127.65071712 44.25 127.625 C42.88022295 127.60993504 41.51042998 127.59624982 40.140625 127.58398438 C36.80167642 127.54871379 33.46354325 127.49941896 30.125 127.4375 C30.14602783 128.17790527 30.16705566 128.91831055 30.1887207 129.68115234 C30.21325317 131.1499585 30.21325317 131.1499585 30.23828125 132.6484375 C30.25930908 133.61571777 30.28033691 134.58299805 30.30200195 135.57958984 C29.9293473 141.59654899 27.04538665 145.61249679 22.765625 149.6796875 C19.95029281 152.03122219 17.0681793 154.24839016 14.125 156.4375 C13.25230469 157.09878906 12.37960938 157.76007813 11.48046875 158.44140625 C9.58343076 159.87164805 7.68065113 161.29429325 5.7734375 162.7109375 C0.03776741 166.98034607 -5.63086861 171.33903206 -11.31396484 175.67797852 C-12.1745752 176.33467529 -13.03518555 176.99137207 -13.921875 177.66796875 C-15.17000977 178.62775635 -15.17000977 178.62775635 -16.44335938 179.60693359 C-18.02538918 180.79790342 -19.63036925 181.95917496 -21.25976562 183.08447266 C-21.98357422 183.58897949 -22.70738281 184.09348633 -23.453125 184.61328125 C-24.4107373 185.25583862 -24.4107373 185.25583862 -25.38769531 185.91137695 C-28.97368195 189.59095713 -28.22464143 196.66528072 -28.50756836 201.5546875 C-28.59075066 202.91898895 -28.59075066 202.91898895 -28.6756134 204.31085205 C-28.79544333 206.28106106 -28.91377446 208.25136167 -29.03077507 210.22174072 C-29.21651867 213.34062415 -29.40736577 216.45915607 -29.5997467 219.57763672 C-30.1460391 228.44257332 -30.6857119 237.30789396 -31.21557617 246.17382812 C-31.54026255 251.60057265 -31.87310284 257.02676626 -32.211092 262.45269775 C-32.33819101 264.51936009 -32.46215718 266.58621757 -32.58292961 268.65325928 C-32.75196854 271.5428049 -32.93134128 274.43153908 -33.11303711 277.3203125 C-33.16037994 278.17345032 -33.20772278 279.02658813 -33.25650024 279.90557861 C-33.60507874 285.22674719 -34.35715779 289.26809626 -37.4765625 293.7265625 C-40.94182181 296.19852273 -44.15770176 295.94505238 -48.25 295.8125 C-49.09981445 295.79743408 -49.94962891 295.78236816 -50.82519531 295.7668457 C-53.84416129 295.69330951 -56.85811123 295.57161385 -59.875 295.4375 C-61.11088867 295.38287598 -62.34677734 295.32825195 -63.62011719 295.27197266 C-66.95705171 295.11215149 -70.29181123 294.93723311 -73.62677002 294.74176025 C-75.58990665 294.62705057 -77.55349974 294.5202402 -79.51708984 294.41357422 C-94.35372716 293.43329988 -94.35372716 293.43329988 -100.15234375 288.5 C-100.70019531 287.819375 -101.24804688 287.13875 -101.8125 286.4375 C-102.37839844 285.756875 -102.94429688 285.07625 -103.52734375 284.375 C-107.1391625 279.18235623 -106.39958766 272.47754398 -105.875 266.4375 C-104.3272901 261.55043777 -101.21945948 258.08195359 -96.875 255.4375 C-91.84090281 253.51025487 -87.2929755 252.24400088 -81.875 252.4375 C-82.03347412 251.93992187 -82.19194824 251.44234375 -82.35522461 250.9296875 C-83.07318922 247.48723434 -83.11193813 244.06524688 -83.19140625 240.5625 C-83.21286713 239.77829681 -83.234328 238.99409363 -83.25643921 238.18612671 C-83.37192049 233.7958497 -83.45846251 229.40526548 -83.53540039 225.01416016 C-83.55145828 224.10419281 -83.56751617 223.19422546 -83.58406067 222.25668335 C-83.61672857 220.39376421 -83.64844715 218.53082819 -83.679245 216.6678772 C-83.77600866 211.48529332 -83.96980935 206.32400529 -84.2893219 201.15049744 C-85.59612161 179.60201088 -82.46333852 164.45155529 -71.61425781 145.6418457 C-67.53717594 138.13037748 -65.27837602 132.33995606 -65.39257812 123.71777344 C-65.38866562 122.79124466 -65.38475311 121.86471588 -65.38072205 120.91011047 C-65.37477881 118.91317164 -65.37785924 116.91618916 -65.3891449 114.91927338 C-65.40652093 111.74741804 -65.39883582 108.57646511 -65.3848877 105.40460205 C-65.35535146 97.5267039 -65.36838449 89.64898209 -65.38006592 81.77105713 C-65.38830867 75.10792466 -65.38016871 68.44518866 -65.35093689 61.78211212 C-65.34390404 58.67737813 -65.36044417 55.57336593 -65.37805176 52.46868896 C-65.37656992 39.7628312 -64.56895665 29.59409442 -57.875 18.4375 C-48.47 19.9225 -48.47 19.9225 -38.875 21.4375 C-40.195 23.7475 -41.515 26.0575 -42.875 28.4375 C-45.41976618 33.24428056 -47.02817296 37.03617547 -46.94573975 42.48852539 C-46.93224236 43.68557854 -46.93224236 43.68557854 -46.91847229 44.90681458 C-46.90380417 45.77416733 -46.88913605 46.64152008 -46.87402344 47.53515625 C-46.85124773 49.44563168 -46.82903776 51.35611391 -46.80731201 53.26660156 C-46.79452965 54.2804895 -46.78174728 55.29437744 -46.76857758 56.33898926 C-46.69752711 62.9054917 -46.69172469 69.47245133 -46.67472458 76.03927612 C-46.6562323 81.77627346 -46.61517459 87.5112531 -46.52197266 93.24755859 C-45.78258325 140.9111951 -45.78258325 140.9111951 -59.26583862 162.75068665 C-62.93976355 168.88503134 -66.55258398 175.30761554 -66.3984375 182.61328125 C-66.3871582 183.74531982 -66.37587891 184.8773584 -66.36425781 186.04370117 C-66.32655273 187.26677979 -66.28884766 188.4898584 -66.25 189.75 C-66.23291992 191.06782471 -66.21583984 192.38564941 -66.19824219 193.7434082 C-66.08594713 202.06514699 -65.82198276 210.38405109 -65.59109497 218.70314026 C-65.45855535 223.61309744 -65.34014779 228.52336372 -65.22198486 233.4336853 C-65.12577173 237.09562726 -65.00379502 240.75612385 -64.88037109 244.41723633 C-64.8202753 246.69870399 -64.76115038 248.98019749 -64.703125 251.26171875 C-64.66057587 252.31563812 -64.61802673 253.3695575 -64.57418823 254.45541382 C-64.42525472 261.63711327 -64.42525472 261.63711327 -66.63330078 265.56665039 C-68.89798931 267.45668613 -70.03611903 268.15184975 -72.9140625 268.546875 C-73.65914062 268.66160156 -74.40421875 268.77632813 -75.171875 268.89453125 C-76.32429688 269.03955078 -76.32429688 269.03955078 -77.5 269.1875 C-82.84599871 269.76303313 -82.84599871 269.76303313 -87.875 271.4375 C-87.875 272.7575 -87.875 274.0775 -87.875 275.4375 C-75.54739485 276.53197722 -63.22376814 277.60919284 -50.875 278.4375 C-50.82529053 277.15641357 -50.77558105 275.87532715 -50.72436523 274.55541992 C-50.08451615 258.69711124 -49.18279827 242.85785078 -48.20043945 227.01782227 C-47.97852005 223.43391132 -47.76445931 219.84957383 -47.55205631 216.26508808 C-47.38383371 213.44981895 -47.20993158 210.63492034 -47.03454399 207.82008934 C-46.91433422 205.86860637 -46.79996491 203.91676634 -46.68580627 201.96492004 C-45.37913417 181.41732325 -45.37913417 181.41732325 -41.6640625 176.52734375 C-40.74367188 175.83769531 -39.82328125 175.14804687 -38.875 174.4375 C-37.8389016 173.56646465 -36.80517913 172.69259784 -35.7734375 171.81640625 C-34.60237138 170.87335014 -33.42768441 169.9347781 -32.25 169 C-31.28525757 168.23055054 -31.28525757 168.23055054 -30.30102539 167.44555664 C-24.27679376 162.68099564 -18.09864996 158.13450101 -11.89233398 153.61108398 C-6.16554804 149.42718148 -0.56080214 145.1164591 4.93774414 140.63647461 C8.91473272 137.4375 8.91473272 137.4375 11.125 137.4375 C11.785 134.1375 12.445 130.8375 13.125 127.4375 C11.475 127.1075 9.825 126.7775 8.125 126.4375 C4.59297865 121.55736056 4.72618261 116.87108812 4.83203125 111.1015625 C4.83627609 110.22221039 4.84052094 109.34285828 4.84489441 108.43685913 C4.86160539 105.64508658 4.89924308 102.85405212 4.9375 100.0625 C4.95255666 98.16277089 4.96624334 96.26303039 4.97851562 94.36328125 C5.01148402 89.72107242 5.06321347 85.07941109 5.125 80.4375 C4.34125 80.33695312 3.5575 80.23640625 2.75 80.1328125 C0.125 79.4375 0.125 79.4375 -1.875 76.3125 C-2.99600611 73.28139969 -2.90250994 71.54760055 -1.6875 68.5625 C0.125 65.4375 0.125 65.4375 2.125 64.4375 C3.67133154 64.30915051 5.22241187 64.23538702 6.7734375 64.19140625 C7.69640625 64.15853516 8.619375 64.12566406 9.5703125 64.09179688 C11.51551383 64.03084723 13.46083238 63.97352545 15.40625 63.91992188 C16.33179687 63.88576172 17.25734375 63.85160156 18.2109375 63.81640625 C19.0570459 63.7913501 19.9031543 63.76629395 20.77490234 63.74047852 C23.31328467 63.41322603 24.96318536 62.7938207 27.125 61.4375 C28.52435013 58.63879973 28.37765405 56.53251208 28.125 53.4375 C26.52833281 51.27261932 25.60611112 50.53307463 22.94848633 50.00512695 C21.71521606 49.96585083 21.71521606 49.96585083 20.45703125 49.92578125 C19.56435547 49.89033203 18.67167969 49.85488281 17.75195312 49.81835938 C16.82318359 49.79580078 15.89441406 49.77324219 14.9375 49.75 C13.99712891 49.71583984 13.05675781 49.68167969 12.08789062 49.64648438 C9.76704607 49.56401782 7.44657852 49.49486597 5.125 49.4375 C5.13660156 48.68130371 5.14820312 47.92510742 5.16015625 47.14599609 C5.1897365 43.70042541 5.15795393 40.25801677 5.125 36.8125 C5.15400391 35.02779297 5.15400391 35.02779297 5.18359375 33.20703125 C5.20206659 26.85729332 5.20206659 26.85729332 2.50585938 21.32861328 C-1.40724921 18.236207 -5.48268485 16.56320083 -10.375 15.5625 C-11.93734375 15.22605469 -11.93734375 15.22605469 -13.53125 14.8828125 C-14.3046875 14.73585937 -15.078125 14.58890625 -15.875 14.4375 C-14.885 13.4784375 -14.885 13.4784375 -13.875 12.5 C-12.09920202 10.76444673 -10.52989907 9.00736393 -8.97265625 7.06640625 C-3.6849046 0.56074635 -3.6849046 0.56074635 0 0 Z " fill="#000000" transform="translate(105.875,216.5625)"/>
<path d="M0 0 C1.34557813 2.69115626 0.6989649 4.72938887 0.33296204 7.63075256 C-1.00693683 19.71781451 2.4974645 27.91146134 7.8125 38.5625 C8.63219599 40.27820304 9.44745567 41.99603176 10.25854492 43.71582031 C11.52474894 46.39774389 12.79417278 49.07768429 14.07832336 51.75106812 C18.48751158 60.93083066 22.58387905 70.23973691 26.64779663 79.5763855 C27.7843025 82.18527171 28.9268862 84.79140538 30.0715332 87.39672852 C31.76410565 91.25155233 33.44670909 95.11054999 35.1204834 98.97357178 C35.94129778 100.86474862 36.76873582 102.7530468 37.59667969 104.64111328 C38.05075195 105.69540527 38.50482422 106.74969727 38.97265625 107.8359375 C39.54705444 109.15924072 39.54705444 109.15924072 40.13305664 110.50927734 C42.15160512 116.30855406 41.96013057 121.00861808 39.3125 126.5 C34.94338102 130.72664771 28.74050003 130.52031933 23 131 C22.08428223 131.08733398 21.16856445 131.17466797 20.22509766 131.26464844 C8.31746859 132.39725559 -3.60013719 133.20032399 -15.5625 133.375 C-16.94284424 133.41391357 -16.94284424 133.41391357 -18.35107422 133.45361328 C-26.69884502 133.47666069 -33.92874032 130.89269322 -40 125 C-43.74126841 119.65533085 -44.84950557 114.51287605 -44 108 C-42.24000817 102.72002451 -39.78272897 98.97592025 -35 96 C-33.45028819 95.27750948 -31.890876 94.57559529 -30.32421875 93.890625 C-29.51428467 93.53516602 -28.70435059 93.17970703 -27.86987305 92.81347656 C-26.94428589 92.41080566 -26.94428589 92.41080566 -26 92 C-28.06220589 88.66648463 -30.12481895 85.33322137 -32.1875 82 C-32.76564453 81.06542969 -33.34378906 80.13085938 -33.93945312 79.16796875 C-34.50986328 78.24628906 -35.08027344 77.32460938 -35.66796875 76.375 C-36.22967773 75.45831543 -36.79138672 74.54163086 -37.37011719 73.59716797 C-38.38585295 71.97862438 -39.43375583 70.37929957 -40.52832031 68.81298828 C-43.82123561 64.03744197 -44.69361265 60.64175397 -44.375 54.875 C-44.35501953 54.14869385 -44.33503906 53.4223877 -44.31445312 52.67407227 C-44.2426013 50.44642284 -44.12922903 48.22500827 -44 46 C-43.96036133 45.29246582 -43.92072266 44.58493164 -43.87988281 43.85595703 C-43.64658676 39.89832275 -43.3504556 35.94888367 -43 32 C-41.68 31.67 -40.36 31.34 -39 31 C-38.81953125 32.23492187 -38.6390625 33.46984375 -38.453125 34.7421875 C-36.97918642 41.32355437 -33.36002239 46.51497219 -29.75 52.125 C-29.03135274 53.26333152 -28.31417038 54.40258906 -27.59838867 55.54272461 C-26.13026511 57.87946798 -24.65669231 60.21262788 -23.17919922 62.54345703 C-19.82725729 67.84445739 -16.57019983 73.20325749 -13.3125 78.5625 C-12.74950195 79.48240723 -12.18650391 80.40231445 -11.60644531 81.35009766 C-9.06289023 85.52155868 -6.5476839 89.70971812 -4.10546875 93.94140625 C-3.6983667 94.64338135 -3.29126465 95.34535645 -2.87182617 96.06860352 C-2 98 -2 98 -2 101.375 C-3.32745234 104.8595624 -4.70008074 106.35004037 -8 108 C-10.45848979 108.36848559 -12.90808445 108.70097993 -15.375 109 C-21.24392465 109.69328327 -21.24392465 109.69328327 -27 111 C-26.67 112.32 -26.34 113.64 -26 115 C-20.69775082 116.15528681 -15.8054444 115.94812683 -10.4375 115.625 C-8.76955294 115.53345811 -7.10158273 115.44233741 -5.43359375 115.3515625 C-4.50015137 115.2990332 -3.56670898 115.24650391 -2.60498047 115.19238281 C5.5946101 114.75480477 13.79777852 114.38459224 22 114 C21.49887695 112.87247314 20.99775391 111.74494629 20.48144531 110.58325195 C20.14487915 109.82592773 19.80831299 109.06860352 19.46154785 108.28833008 C18.68980678 106.55201656 17.91790935 104.81577254 17.14587402 103.07958984 C14.94684617 98.13366451 12.7507428 93.18647147 10.55957031 88.23706055 C6.30036498 78.62413316 2.02495985 69.02062543 -2.35394287 59.46150208 C-4.21615143 55.39376888 -6.06488525 51.31997617 -7.91271973 47.24569702 C-8.79914975 45.30139713 -9.69223088 43.36011487 -10.59216309 41.42202759 C-11.85461636 38.70157321 -13.09348396 35.97144633 -14.328125 33.23828125 C-14.88916931 32.05335083 -14.88916931 32.05335083 -15.46154785 30.84448242 C-17.88480008 25.39760308 -19.22914777 19.95662349 -18 14 C-15.70582355 11.04722453 -13.07530569 9.10260517 -10 7 C-9.08992188 6.34515625 -8.17984375 5.6903125 -7.2421875 5.015625 C-4.848671 3.31084117 -2.43643752 1.64259825 0 0 Z " fill="#000000" transform="translate(135,379)"/>
<path d="M0 0 C9.2885078 6.04644574 16.30704248 13.66242586 19.23828125 24.45703125 C20.46037108 35.51909764 20.10526593 45.98365476 13.25 55.1015625 C7.15310061 62.29358717 -0.02143748 68.60191805 -9.76831055 69.67871094 C-22.17165 70.3332112 -31.31823533 69.47747693 -41.07421875 61.20703125 C-47.77198818 54.80366927 -52.59619898 47.78820009 -53.09765625 38.28515625 C-53.36515737 24.97083003 -51.61687307 16.57635933 -42.1328125 6.65625 C-31.30988012 -3.38215351 -13.59314718 -6.64397349 0 0 Z " fill="#000000" transform="translate(424.76171875,126.54296875)"/>
<path d="M0 0 C7.13416322 4.60641115 11.49136362 10.90644321 14 19 C15.58809941 28.94417386 14.39770843 37.89887539 8.45703125 46.140625 C3.03994997 52.83450119 -3.43474976 57.42970412 -12 59 C-21.22870152 59.86187586 -29.61645518 58.81824524 -37.32421875 53.3515625 C-44.86824428 46.9649383 -49.31821305 40.45949321 -50.8125 30.625 C-51.55857038 21.16936891 -48.63591641 13.52323253 -43 6 C-32.60907925 -5.83904418 -13.36559964 -8.05301417 0 0 Z " fill="#000000" transform="translate(82,164)"/>
<path d="M0 0 C5.21264453 7.81896679 1.5839347 21.69590385 0.57421875 30.62109375 C0.42417215 31.97816296 0.27442343 33.33526514 0.12495422 34.69239807 C-0.18708424 37.50896905 -0.50464255 40.32485033 -0.82592773 43.14038086 C-1.23541448 46.73536736 -1.62767464 50.33200699 -2.01554585 53.92938137 C-2.3189943 56.72106604 -2.63303722 59.51148408 -2.95009422 62.30165291 C-3.17113544 64.26728046 -3.38210173 66.23403263 -3.59284973 68.20079041 C-3.7327684 69.39966385 -3.87268707 70.59853729 -4.0168457 71.83374023 C-4.13453812 72.88262924 -4.25223053 73.93151825 -4.37348938 75.01219177 C-5.08452137 78.40307958 -6.25591695 81.01378819 -8 84 C-11.12942465 85.56471233 -14.61082223 85.69701958 -18 85 C-20.84500722 82.80015047 -21.90097333 81.66130689 -22.44075012 78.05664062 C-22.40720932 76.93451172 -22.37366852 75.81238281 -22.33911133 74.65625 C-22.3024234 73.4084375 -22.26573547 72.160625 -22.22793579 70.875 C-21.86610951 64.72380787 -21.28168935 58.62045482 -20.57421875 52.5 C-20.424111 51.16678773 -20.27436385 49.83353482 -20.12495422 48.50024414 C-19.81330986 45.73666758 -19.4957528 42.97385136 -19.17407227 40.21142578 C-18.76414443 36.68491913 -18.37200117 33.15668225 -17.98445415 29.62765503 C-17.68102005 26.88656576 -17.36698549 24.14676778 -17.04990578 21.40722656 C-16.8290042 19.47926592 -16.61796703 17.55018318 -16.40715027 15.62109375 C-16.2672316 14.44546875 -16.12731293 13.26984375 -15.9831543 12.05859375 C-15.80661568 10.51643188 -15.80661568 10.51643188 -15.62651062 8.94311523 C-14.71308221 4.65216633 -13.47946584 0.98631056 -9.75 -1.5 C-5.98237198 -2.18502328 -3.52977104 -1.39858853 0 0 Z " fill="#000000" transform="translate(94,251)"/>
<path d="M0 0 C8.03966884 2.574158 15.82219281 9.14720057 20.08203125 16.38671875 C22.62872097 21.3927831 24.70332032 25.70214724 24.68774414 31.38745117 C24.68766861 32.30817917 24.68759308 33.22890717 24.68751526 34.17753601 C24.68235397 35.168246 24.67719269 36.15895599 24.671875 37.1796875 C24.67046005 38.19646072 24.6690451 39.21323395 24.66758728 40.26081848 C24.66198582 43.51114839 24.64943307 46.76140963 24.63671875 50.01171875 C24.63170394 52.21419171 24.627141 54.41666576 24.62304688 56.61914062 C24.61201591 62.02085982 24.59475029 67.42252764 24.57421875 72.82421875 C19.29421875 72.82421875 14.01421875 72.82421875 8.57421875 72.82421875 C8.52523438 70.24609375 8.47625 67.66796875 8.42578125 65.01171875 C8.37164922 62.49294627 8.31438997 59.97426274 8.25683594 57.45556641 C8.2187396 55.71572599 8.18385428 53.97581199 8.15234375 52.23583984 C8.10626974 49.7233667 8.04834925 47.21139175 7.98828125 44.69921875 C7.97673004 43.9311792 7.96517883 43.16313965 7.95327759 42.37182617 C7.74752075 34.70720147 6.58500116 27.91841358 1.57421875 21.82421875 C-3.51595073 17.3532913 -8.48767506 15.20954415 -15.23828125 14.32421875 C-16.29015625 14.15921875 -17.34203125 13.99421875 -18.42578125 13.82421875 C-18.75578125 13.16421875 -19.08578125 12.50421875 -19.42578125 11.82421875 C-18.78511719 11.46070313 -18.14445312 11.0971875 -17.484375 10.72265625 C-12.49327169 7.82171692 -8.13431691 4.97256252 -4.09375 0.828125 C-2.42578125 -0.17578125 -2.42578125 -0.17578125 0 0 Z " fill="#000000" transform="translate(447.42578125,195.17578125)"/>
<path d="M0 0 C2.6292322 0.94345855 4.30913566 2.30038428 6.45703125 4.08203125 C10.20128728 7.09479356 13.90654176 9.51528152 18.14453125 11.76953125 C17.81453125 12.42953125 17.48453125 13.08953125 17.14453125 13.76953125 C15.140625 14.26171875 15.140625 14.26171875 12.58203125 14.64453125 C4.34494328 16.17427616 -0.98651839 18.89571897 -5.85546875 25.76953125 C-7.62234438 28.80139198 -8.19058907 31.266655 -8.48828125 34.75390625 C-8.57207031 35.68847656 -8.65585937 36.62304688 -8.7421875 37.5859375 C-8.86013672 39.03806641 -8.86013672 39.03806641 -8.98046875 40.51953125 C-9.06683594 41.50308594 -9.15320313 42.48664063 -9.2421875 43.5 C-9.45387513 45.92264728 -9.65803154 48.34568792 -9.85546875 50.76953125 C-15.66808246 49.0297013 -20.68716869 46.95848235 -25.85546875 43.76953125 C-26.38982419 30.97468701 -26.30873432 21.71623888 -17.66796875 11.51953125 C-6.00172436 -0.74547734 -6.00172436 -0.74547734 0 0 Z " fill="#000000" transform="translate(369.85546875,195.23046875)"/>
</svg>
